HIERARCHY
ROOT Hips
{
  OFFSET -46.8219 88.2261 38.8477
  CHANNELS 6 Xposition Yposition Zposition Zrotation Xrotation Yrotation
  JOINT ToSpine
  {
    OFFSET -2.69724 7.43032 -0.144315
    CHANNELS 3 Zrotation Xrotation Yrotation
    JOINT Spine
    {
      OFFSET -0.0310711 10.7595 1.96963
      CHANNELS 3 Zrotation Xrotation Yrotation
      JOINT Spine1
      {
        OFFSET 19.9056 3.91189 0.764692
        CHANNELS 3 Zrotation Xrotation Yrotation
        JOINT Neck
        {
          OFFSET 25.9749 7.03908 -0.130764
          CHANNELS 3 Zrotation Xrotation Yrotation
          JOINT Head
          {
            OFFSET 9.52751 0.295786 -0.907742
            CHANNELS 3 Zrotation Xrotation Yrotation
            End Site
            {
              OFFSET 16.4037 0.713936 2.7358
            }
          }
        }
        JOINT LeftShoulder
        {
          OFFSET 17.7449 4.33886 11.7777
          CHANNELS 3 Zrotation Xrotation Yrotation
          JOINT LeftArm
          {
            OFFSET 0.911315 1.27913 9.80584
            CHANNELS 3 Zrotation Xrotation Yrotation
            JOINT LeftForeArm
            {
              OFFSET 28.6126 1.18197 -3.53199
              CHANNELS 3 Zrotation Xrotation Yrotation
              JOINT LeftHand
              {
                OFFSET 27.5088 0.0218783 0.327423
                CHANNELS 3 Zrotation Xrotation Yrotation
                End Site
                {
                  OFFSET 18.6038 -0.000155887 0.382096
                }
              }
            }
          }
        }
        JOINT RightShoulder
        {
          OFFSET 17.1009 2.89543 -12.2328
          CHANNELS 3 Zrotation Xrotation Yrotation
          JOINT RightArm
          {
            OFFSET 1.4228 0.178766 -10.211
            CHANNELS 3 Zrotation Xrotation Yrotation
            JOINT RightForeArm
            {
              OFFSET 28.733 1.87905 2.64907
              CHANNELS 3 Zrotation Xrotation Yrotation
              JOINT RightHand
              {
                OFFSET 27.4588 0.290562 -0.101845
                CHANNELS 3 Zrotation Xrotation Yrotation
                End Site
                {
                  OFFSET 17.8396 -0.255518 -0.000602873
                }
              }
            }
          }
        }
      }
    }
  }
  JOINT LeftUpLeg
  {
    OFFSET -5.61296 -2.22332 -10.2353
    CHANNELS 3 Zrotation Xrotation Yrotation
    JOINT LeftLeg
    {
      OFFSET 2.56703 -44.7417 -7.93097
      CHANNELS 3 Zrotation Xrotation Yrotation
      JOINT LeftFoot
      {
        OFFSET 3.16933 -46.5642 -3.96578
        CHANNELS 3 Zrotation Xrotation Yrotation
        JOINT LeftToeBase
        {
          OFFSET 0.346054 -6.02161 12.8035
          CHANNELS 3 Zrotation Xrotation Yrotation
          End Site
          {
            OFFSET 0.134235 -1.35082 5.13018
          }
        }
      }
    }
  }
  JOINT RightUpLeg
  {
    OFFSET -5.7928 -1.72406 10.6446
    CHANNELS 3 Zrotation Xrotation Yrotation
    JOINT RightLeg
    {
      OFFSET -2.57161 -44.7178 -7.85259
      CHANNELS 3 Zrotation Xrotation Yrotation
      JOINT RightFoot
      {
        OFFSET -3.10148 -46.5936 -4.03391
        CHANNELS 3 Zrotation Xrotation Yrotation
        JOINT RightToeBase
        {
          OFFSET -0.0828122 -6.13587 12.8035
          CHANNELS 3 Zrotation Xrotation Yrotation
          End Site
          {
            OFFSET -0.131328 -1.35082 5.13018
          }
        }
      }
    }
  }
}
MOTION
Frames:	10
Frame Time:	0.0333333
-375.287 87.9048 10.6532 66.277 -9.44215 -11.5412 -70.1915 0 88.8779 128.656 67.2957 -52.0226 9.16092 23.0427 -5.61245 -163.051 17.4763 172.984 -143.678 53.3138 167.762 2.39808 -1.27391 -26.7956 -82.2613 35.2747 -114.352 -5.42247 20.5008 -7.99375 16.3365 -0.389179 -0.998915 0.20813 -0.29036 28.6677 -55.8032 -49.7726 108.29 16.2365 -13.5184 45.8094 12.3939 0.140014 0.993567 -29.2056 -13.1679 97.2182 -8.30467 69.8093 2.34919 10.3847 7.46567 -1.49446 -11.8096 -48.35 7.52781 -33.5515 -2.71273 94.1422 169.978 65.8652 -176.879 -10.8088 -3.00523 1.41625 -12.2224 10.1297 17.9752 
-364.865 87.3404 13.5739 65.5245 -2.11764 -9.34493 -70.1915 0 88.8779 120.567 66.4435 -44.2222 7.78616 19.8873 -2.39686 -162.096 18.0041 173.388 -142.428 53.7628 167.904 2.07957 -2.32965 -24.5237 -65.1875 28.2167 -129.097 5.05374 5.89303 -26.1221 11.1039 -0.643564 -4.79417 0.33244 -1.11893 27.9782 -65.2101 -55.399 91.0666 20.4378 -18.6712 44.7519 10.4932 0.0722741 0.471396 -36.813 -16.9505 90.5801 -7.55684 67.4055 -0.280052 13.0616 8.83661 -2.04281 -13.7259 -54.6697 6.9278 -16.9577 -5.48558 92.9985 169.096 62.0335 -166.741 -9.03488 -1.12908 1.25957 4.2343 -1.87269 -9.9583 
-352.319 88.2859 17.4036 64.7136 -2.07505 -7.11211 -70.1915 0 88.8779 113.476 67.7955 -36.8854 5.95744 19.4492 0.158436 -159.372 17.2334 173.972 -144.291 53.1986 167.789 2.09254 -1.68038 -23.5756 -73.6531 29.3419 -127.903 11.4349 9.72239 -44.1581 10.8809 -0.928969 -7.81781 0.391173 -1.5553 27.3187 -65.8362 -57.4325 81.5011 17.2632 -16.561 42.0841 8.80303 0.096025 0.976309 -49.1692 -12.2711 87.892 -5.99084 60.126 -7.72074 10.7429 4.47522 -1.49876 -12.0902 -51.4807 9.40602 -5.66762 -2.87431 93.2756 166.156 69.4918 -161.376 -9.17701 -2.99318 1.25997 8.59465 -7.78767 -19.4087 
-339.668 90.5648 20.4531 65.5234 -0.561602 -1.77467 -70.1915 0 88.8779 110.606 66.3864 -30.4402 5.73197 17.3127 2.5317 -158.164 15.892 174.662 -144.888 51.7982 167.752 2.10536 -0.967284 -22.6693 -79.8361 29.735 -125.039 17.5126 8.86387 -60.9544 11.4041 -0.965701 -7.74668 0.218048 -0.316773 25.8781 -64.0276 -60.3082 76.939 11.8847 -11.5366 38.6222 8.85026 0.0406004 0.19776 -62.3161 -8.88613 77.4209 -4.35571 52.2524 -10.1787 6.83897 1.21755 -0.92097 -8.83937 -40.7911 14.3739 -3.18957 -4.11454 88.6799 119.866 85.8798 -117.129 -8.5343 -5.79807 1.1905 8.8152 -10.1837 -18.5884 
-327.354 93.6135 23.3365 67.6916 -1.49866 2.69323 -70.1915 0 88.8779 112.847 65.5534 -29.2213 6.86107 16.7127 3.63853 -157.107 14.6713 173.555 -144.561 50.1035 165.988 1.95397 -0.381331 -20.1531 -84.5617 32.3232 -119.581 19.4533 6.08466 -71.603 13.8745 -1.41587 -9.68051 0.123826 0.387654 26.2469 -62.5908 -61.2627 75.0475 7.36703 -6.18908 36.6509 8.95234 0.0312971 0.0630879 -71.8617 -2.55866 75.0319 -3.32921 47.1103 -8.78951 1.23988 2.39863 -0.11619 -4.9433 -14.563 12.2228 -8.63922 -2.64909 84.1149 6.0552 67.6805 -2.69023 -5.68605 -6.71324 1.00693 7.36108 -8.00278 -15.0897 
-315.937 94.9895 25.3552 68.6641 -2.46234 3.05523 -70.1915 0 88.8779 111.615 65.5659 -27.2681 7.82581 16.539 4.15394 -156.311 14.1445 174.155 -146.565 49.7827 165.475 2.17944 1.41224 -20.7506 -87.9404 32.3641 -112.846 19.115 4.55532 -75.9175 16.4499 -1.20582 -6.50396 0.0644517 0.794187 26.7019 -61.8134 -60.8833 76.1999 3.90991 -1.61461 35.2398 8.03769 0.0572044 0.515479 -72.3026 -4.10641 74.0486 -3.89555 56.3521 -2.32993 1.34217 7.25057 0.158606 -5.28947 -14.6507 15.4013 -13.0559 -3.4249 80.8007 2.79244 50.3507 3.50878 -4.15074 -1.70429 0.73244 4.34656 2.19663 -12.8866 
-304.715 94.4111 27.1693 70.9649 -4.89739 4.62014 -70.1915 0 88.8779 113.67 66.0889 -26.1216 10.8411 17.5204 3.04834 -156.539 13.4919 176.082 -146.679 49.0871 165.737 2.26359 1.76089 -21.2295 -90.7024 32.8253 -105.851 16.497 5.44614 -70.2199 15.226 -0.939304 -5.21567 0.102317 0.514895 26.7352 -65.2587 -59.0841 77.7209 0.419557 3.27795 35.3646 6.6321 0.106177 1.65423 -67.1813 -3.5957 77.6118 -12.4748 76.3185 8.80127 3.73566 11.7669 -0.102642 -5.984 -20.968 14.1688 -16.7423 -2.70158 75.3423 2.72414 49.5337 3.49245 -3.15712 -2.31125 0.65242 1.17111 4.62627 -6.41893 
-293.197 92.9557 29.5746 74.3974 -9.53865 6.07899 -70.1915 0 88.8779 120.226 67.1349 -30.598 12.3159 19.5754 3.08709 -156.498 14.8968 175.432 -143.958 49.3881 161.27 2.37886 1.24719 -22.8834 -92.1138 32.2332 -98.2823 13.8864 8.0466 -56.3911 15.4617 -1.10961 -6.33396 0.266704 -0.6809 27.2221 -66.7552 -55.1029 83.5439 -1.18282 5.26188 36.6135 7.4855 0.0768054 0.913178 -60.2336 -1.20329 82.5486 -142.771 83.5228 140.035 2.56728 7.71725 -0.0424445 -5.70421 -18.692 14.4814 -22.5303 1.92954 73.4827 3.81122 55.5178 4.29264 -4.89524 -4.98296 0.906529 -0.35842 14.0113 -8.38501 
-281.833 91.1127 32.1015 77.2376 -12.1339 10.6017 -70.1915 0 88.8779 127.541 66.5792 -33.6431 12.8367 20.317 4.43718 -157.066 14.8644 176.895 -143.182 49.066 160.69 2.66062 1.67118 -25.0976 -90.1692 31.974 -95.3218 10.2732 10.916 -36.8733 11.3892 -0.887926 -7.00563 0.33857 -1.17685 27.5389 -69.0789 -51.0804 90.2524 -3.3831 7.74391 38.2525 8.76537 0.0597 0.472028 -49.3041 2.88898 81.3482 -166.148 70.0458 164.267 4.80312 7.48693 -0.466297 -6.24288 -23.5042 10.4409 -29.2502 7.65328 71.6952 5.45308 60.9043 5.42073 -6.08697 -5.46295 1.00919 5.53541 1.92552 -15.8639 
-270.218 88.784 34.5782 78.3384 -14.0759 14.7073 -70.1915 0 88.8779 132.626 66.818 -33.9408 11.7582 21.416 5.74734 -157.684 14.4644 178.263 -141.38 48.4009 161.599 2.7415 1.27995 -26.4058 -79.3146 31.806 -97.2654 4.84642 9.30231 -20.1853 10.7624 -0.721351 -5.79366 0.367829 -1.46708 25.9916 -73.8206 -50.3749 94.3728 -2.17147 5.41117 41.6006 9.87442 0.0114905 -0.224154 -34.4019 4.38296 76.8852 -168.79 62.9127 167.087 5.64974 6.77658 -0.638534 -7.13256 -28.141 7.27157 -35.0367 13.1173 70.4334 7.25054 65.3119 4.8289 -6.79974 -7.49471 1.08739 9.71465 -15.8517 -17.5644 
